<svg xmlns="http://www.w3.org/2000/svg" width="1200" height="400" viewBox="0 0 1200 400">
  <defs>
    <linearGradient id="bg" x1="0" y1="0" x2="0.3" y2="1">
      <stop offset="0%" stop-color="#0a0e1a"/>
      <stop offset="45%" stop-color="#1a2744"/>
      <stop offset="100%" stop-color="#14532d"/>
    </linearGradient>
    <radialGradient id="glow" cx="50%" cy="50%" r="50%">
      <stop offset="0%" stop-color="#fef3c7" stop-opacity="0.7"/>
      <stop offset="50%" stop-color="#fde68a" stop-opacity="0.2"/>
      <stop offset="100%" stop-color="#fde68a" stop-opacity="0"/>
    </radialGradient>
    <radialGradient id="star-glow" cx="50%" cy="50%" r="50%">
      <stop offset="0%" stop-color="#fef9c3" stop-opacity="0.9"/>
      <stop offset="100%" stop-color="#fde68a" stop-opacity="0"/>
    </radialGradient>
  </defs>

  <!-- Dark sky-to-forest background -->
  <rect width="1200" height="400" fill="url(#bg)"/>

  <!-- Subtle aurora / light bloom at top center -->
  <ellipse cx="600" cy="0" rx="500" ry="200" fill="#1e3a5f" opacity="0.5"/>

  <!-- Stars (scattered small dots) -->
  <g fill="#f0f9ff" opacity="0.7">
    <circle cx="80"  cy="40"  r="1.5"/>
    <circle cx="200" cy="20"  r="1"/>
    <circle cx="350" cy="55"  r="1.5"/>
    <circle cx="420" cy="15"  r="1"/>
    <circle cx="530" cy="70"  r="1"/>
    <circle cx="680" cy="30"  r="1.5"/>
    <circle cx="760" cy="60"  r="1"/>
    <circle cx="870" cy="25"  r="1.5"/>
    <circle cx="950" cy="50"  r="1"/>
    <circle cx="1050" cy="35" r="1.5"/>
    <circle cx="1120" cy="70" r="1"/>
    <circle cx="150" cy="90"  r="1"/>
    <circle cx="470" cy="100" r="1.5"/>
    <circle cx="790" cy="85"  r="1"/>
    <circle cx="1000" cy="95" r="1.5"/>
  </g>

  <!-- Large star glow at center-top -->
  <ellipse cx="600" cy="60" rx="120" ry="120" fill="url(#glow)"/>

  <!-- Star shape at top center -->
  <g transform="translate(600, 60)">
    <!-- 8-point star -->
    <polygon points="0,-36 4,-10 18,-18 10,-4 36,0 10,4 18,18 4,10 0,36 -4,10 -18,18 -10,4 -36,0 -10,-4 -18,-18 -4,-10"
             fill="#fef9c3" opacity="0.95"/>
    <!-- Center dot -->
    <circle cx="0" cy="0" r="5" fill="#ffffff"/>
  </g>

  <!-- Fir trees silhouette (left) -->
  <g fill="#0f3d1a" opacity="0.85">
    <polygon points="60,380 120,200 180,380"/>
    <polygon points="100,380 160,240 220,380"/>
    <polygon points="0,380 50,260 100,380"/>
  </g>

  <!-- Fir trees silhouette (right) -->
  <g fill="#0f3d1a" opacity="0.85">
    <polygon points="1020,380 1080,200 1140,380"/>
    <polygon points="1060,380 1120,240 1180,380"/>
    <polygon points="980,380 1030,260 1080,380"/>
  </g>

  <!-- Snow ground -->
  <path d="M0,370 Q200,355 400,365 Q600,375 800,362 Q1000,350 1200,368 L1200,400 L0,400 Z"
        fill="#e0f2fe" opacity="0.9"/>
  <path d="M0,380 Q300,370 600,378 Q900,386 1200,375 L1200,400 L0,400 Z"
        fill="#f0f9ff" opacity="0.95"/>

  <!-- Snow on tree tips (dots) -->
  <g fill="#f0f9ff" opacity="0.7">
    <circle cx="120" cy="200" r="5"/>
    <circle cx="160" cy="240" r="4"/>
    <circle cx="1080" cy="200" r="5"/>
    <circle cx="1120" cy="240" r="4"/>
  </g>

  <!-- Subtle snowflakes (large, faint) -->
  <g stroke="#e0f2fe" stroke-width="1" opacity="0.25">
    <g transform="translate(300, 150)">
      <line x1="-20" y1="0" x2="20" y2="0"/>
      <line x1="0" y1="-20" x2="0" y2="20"/>
      <line x1="-14" y1="-14" x2="14" y2="14"/>
      <line x1="14" y1="-14" x2="-14" y2="14"/>
    </g>
    <g transform="translate(900, 180)">
      <line x1="-15" y1="0" x2="15" y2="0"/>
      <line x1="0" y1="-15" x2="0" y2="15"/>
      <line x1="-11" y1="-11" x2="11" y2="11"/>
      <line x1="11" y1="-11" x2="-11" y2="11"/>
    </g>
    <g transform="translate(550, 220)">
      <line x1="-12" y1="0" x2="12" y2="0"/>
      <line x1="0" y1="-12" x2="0" y2="12"/>
      <line x1="-8" y1="-8" x2="8" y2="8"/>
      <line x1="8" y1="-8" x2="-8" y2="8"/>
    </g>
  </g>
</svg>
